<?xml version="1.0" encoding="UTF-8" standalone="no"?>
<!-- Svg Vector Icons : http://www.onlinewebfonts.com/icon -->

<svg
   version="1.1"
   x="0px"
   y="0px"
   viewBox="0 0 1000 1000"
   enable-background="new 0 0 1000 1000"
   xml:space="preserve"
   id="svg874"
   sodipodi:docname="study.svg"
   inkscape:version="1.1.2 (0a00cf5339, 2022-02-04, custom)"
   xmlns:inkscape="http://www.inkscape.org/namespaces/inkscape"
   xmlns:sodipodi="http://sodipodi.sourceforge.net/DTD/sodipodi-0.dtd"
   xmlns="http://www.w3.org/2000/svg"
   xmlns:svg="http://www.w3.org/2000/svg"><defs
   id="defs878" /><sodipodi:namedview
   id="namedview876"
   pagecolor="#ffffff"
   bordercolor="#666666"
   borderopacity="1.0"
   inkscape:pageshadow="2"
   inkscape:pageopacity="0.0"
   inkscape:pagecheckerboard="0"
   showgrid="false"
   inkscape:zoom="0.644"
   inkscape:cx="499.2236"
   inkscape:cy="493.01242"
   inkscape:window-width="1918"
   inkscape:window-height="1030"
   inkscape:window-x="0"
   inkscape:window-y="48"
   inkscape:window-maximized="1"
   inkscape:current-layer="svg874" />
<metadata
   id="metadata868"> Svg Vector Icons : http://www.onlinewebfonts.com/icon </metadata>
<g
   id="g872"><path
     d="M948.6,367.6v162.3l34.1,34.2l-71.2,74.1l-72-71.9l49.3-44.9V393.2C679.5,479.6,612.4,506.4,566,527.4c-46.4,21-79.9,20.8-125.9,3.5c-46-17.3-265.2-97.4-374-149.6c-72.6-34.8-77.3-56.8,1.2-86.4c102.5-39,272-101.4,361.7-135.5c53.2-21.6,81.3-33.3,130.1-8.7c87.2,36,286.2,110.8,385.2,151.7C1030.5,340.1,972.6,352.5,948.6,367.6L948.6,367.6L948.6,367.6L948.6,367.6z M576.1,591.6c50.6-20.9,118.9-55.5,193.3-87.4v256.2c0,0-96.2,102.5-265.5,102.5c-182.2,0-280.7-102.5-280.7-102.5V521.3c57.4,23.4,121.9,43.6,200,70.3C471.4,608.7,532.5,614.7,576.1,591.6L576.1,591.6L576.1,591.6L576.1,591.6z"
     id="path870" /></g>
<path
   style="fill:#ffffff;stroke-width:0.0939013"
   d="m 876.27868,601.39489 -35.212,-35.4011 23.95424,-21.66874 23.95424,-21.66876 v -64.89957 c 0,-35.69476 -0.38431,-64.89958 -0.85401,-64.89958 -1.50014,0 -264.30617,108.50839 -294.17705,121.46098 -51.62739,22.38663 -59.3466,24.99137 -81.52174,27.50843 -14.39708,1.63418 -31.37596,0.0795 -48.98745,-4.48565 C 443.00053,532.04405 272.40565,467.34708 185.55901,431.95831 64.445803,382.6064 22.298417,360.83801 13.525275,343.10592 c -4.2210238,-8.53145 -2.51118,-14.38055 6.581005,-22.51253 14.294254,-12.78471 11.569774,-11.68597 246.19807,-99.28677 80.70652,-30.13257 159.58874,-59.7951 175.29383,-65.91672 56.53774,-22.03761 74.38811,-22.65345 117.40803,-4.05061 21.03915,9.09783 53.04051,21.72568 195.65218,77.205 194.58122,75.69672 213.29866,83.67774 226.97326,96.78032 5.24445,5.02506 6.72239,7.55758 6.72239,11.51913 0,6.93794 -5.72775,11.95638 -24.86707,21.78758 l -15.5056,7.96467 v 81.8164 81.8164 l 16.57456,16.62612 16.57457,16.62611 -8.79489,9.79676 c -4.83721,5.38821 -20.50615,21.88408 -34.81991,36.65748 l -26.02502,26.86072 z"
   id="path997" /><path
   style="fill:#ffffff;stroke-width:0.0939013"
   d="m 465.83851,860.84081 c -58.74652,-6.01118 -109.0588,-19.97345 -157.36667,-43.67117 -22.73401,-11.1523 -55.47753,-32.16625 -72.447,-46.49464 l -10.86956,-9.17786 -0.39784,-119.1026 c -0.21881,-65.50644 -0.14632,-119.10261 0.1611,-119.10261 0.30741,0 11.35159,4.12188 24.54261,9.15974 13.19103,5.03786 51.55021,18.58099 85.24263,30.09585 126.78324,43.32996 128.12004,43.6705 171.5074,43.69073 42.41921,0.0198 44.00998,-0.50883 151.39752,-50.30895 48.8443,-22.65116 108.4906,-49.71812 109.56169,-49.71812 0.37772,0 0.68675,57.22802 0.68675,127.17338 v 127.17337 l -8.39688,7.67429 c -26.88788,24.57401 -68.50293,49.87048 -107.74942,65.49745 -29.0162,11.55354 -55.67396,18.71772 -90.99485,24.45455 -13.60304,2.20941 -80.84689,4.09226 -94.87748,2.65659 z"
   id="path1036" /></svg>
