<?xml version="1.0" encoding="UTF-8" standalone="no"?>
<!-- Generator: Adobe Illustrator 17.1.0, SVG Export Plug-In . SVG Version: 6.00 Build 0)  -->

<svg
   version="1.1"
   id="Capa_1"
   x="0px"
   y="0px"
   viewBox="0 0 212.298 212.298"
   style="enable-background:new 0 0 212.298 212.298;"
   xml:space="preserve"
   sodipodi:docname="work.svg"
   inkscape:version="1.1.2 (0a00cf5339, 2022-02-04, custom)"
   xmlns:inkscape="http://www.inkscape.org/namespaces/inkscape"
   xmlns:sodipodi="http://sodipodi.sourceforge.net/DTD/sodipodi-0.dtd"
   xmlns="http://www.w3.org/2000/svg"
   xmlns:svg="http://www.w3.org/2000/svg"><defs
   id="defs928" /><sodipodi:namedview
   id="namedview926"
   pagecolor="#ffffff"
   bordercolor="#666666"
   borderopacity="1.0"
   inkscape:pageshadow="2"
   inkscape:pageopacity="0.0"
   inkscape:pagecheckerboard="0"
   showgrid="false"
   inkscape:zoom="3.0334718"
   inkscape:cx="105.98417"
   inkscape:cy="104.66555"
   inkscape:window-width="1918"
   inkscape:window-height="1030"
   inkscape:window-x="0"
   inkscape:window-y="48"
   inkscape:window-maximized="1"
   inkscape:current-layer="Capa_1" />
<path
   d="M207.298,118.602h-4.162V66.09c0-2.762-2.239-5-5-5h-3.987V46.395c0-2.762-2.239-5-5-5h-6.013V26.701c0-2.762-2.239-5-5-5  H34.162c-2.761,0-5,2.238-5,5v14.694h-6.013c-2.761,0-5,2.238-5,5V61.09h-3.987c-2.761,0-5,2.238-5,5v52.512H5c-2.761,0-5,2.238-5,5  v61.995c0,2.762,2.239,5,5,5h202.298c2.761,0,5-2.238,5-5v-61.995C212.298,120.84,210.059,118.602,207.298,118.602z M39.162,31.701  h133.974v9.694H39.162V31.701z M28.149,51.395h156v9.695h-156V51.395z M19.162,71.09h173.974v47.512h-38.422  c-2.402,0-4.464,1.708-4.912,4.067l-4.228,22.259H66.725l-4.228-22.259c-0.448-2.359-2.51-4.067-4.912-4.067H19.162V71.09z"
   id="path893" />
<g
   id="g895">
</g>
<g
   id="g897">
</g>
<g
   id="g899">
</g>
<g
   id="g901">
</g>
<g
   id="g903">
</g>
<g
   id="g905">
</g>
<g
   id="g907">
</g>
<g
   id="g909">
</g>
<g
   id="g911">
</g>
<g
   id="g913">
</g>
<g
   id="g915">
</g>
<g
   id="g917">
</g>
<g
   id="g919">
</g>
<g
   id="g921">
</g>
<g
   id="g923">
</g>
<path
   style="fill:#ffffff;stroke-width:0.0199351"
   d="m 3.5772889,190.18169 c -1.3221223,-0.38438 -2.99306834,-2.2757 -3.24429988,-3.67217 -0.1067076,-0.59313 -0.15111082,-15.34578 -0.0986738,-32.78367 0.0945225,-31.43337 0.10116807,-31.71304 0.77501958,-32.6155 1.4019875,-1.87762 2.2767244,-2.26091 5.4425593,-2.38484 l 2.9432814,-0.11521 0.00122,-26.916519 c 0.00119,-26.277014 0.016796,-26.942044 0.6562975,-27.990911 1.108769,-1.818527 2.418761,-2.384347 5.523506,-2.385755 l 2.719669,-0.0012 v -7.807647 c 0,-7.209827 0.052,-7.915063 0.679125,-9.210532 1.026965,-2.121426 2.607277,-2.761138 6.820974,-2.761138 h 3.336076 l 0.103639,-7.99414 c 0.119162,-9.19163 0.253075,-9.701458 2.900686,-11.043452 l 1.463344,-0.741725 H 106.149 178.69829 l 1.46334,0.741725 c 2.64761,1.341994 2.78153,1.851822 2.90069,11.043452 l 0.10364,7.99414 h 3.33607 c 4.2137,0 5.79401,0.639712 6.82098,2.761138 0.62712,1.295469 0.67912,2.000705 0.67912,9.210532 v 7.807647 l 2.71966,0.0013 c 3.10474,0.0013 4.41473,0.567228 5.5235,2.385754 0.63951,1.048868 0.6551,1.713898 0.6563,27.990912 l 0.001,26.916509 2.94328,0.11522 c 3.16589,0.12393 4.04068,0.50726 5.44256,2.38493 0.67575,0.90509 0.67968,1.09895 0.67968,33.49788 0,32.39893 -0.004,32.5928 -0.67968,33.49788 -0.37382,0.5007 -1.08933,1.21622 -1.59002,1.59004 l -0.91035,0.67968 -102.08656,0.0538 c -60.962031,0.032 -102.5047485,-0.0679 -103.1245311,-0.24808 z m 144.3628311,-56.743 c 2.27699,-12.03673 2.42011,-12.49759 4.32254,-13.91828 0.8927,-0.66666 1.29502,-0.6814 20.99515,-0.76952 l 20.08501,-0.0898 V 94.768466 70.875885 H 106.149 18.955179 v 23.892581 23.892584 l 20.085009,0.0898 c 19.700134,0.0881 20.102451,0.10286 20.995155,0.76952 1.908783,1.42544 2.050999,1.88293 4.328087,13.92291 l 2.194821,11.605 h 39.592829 39.59283 z M 184.44213,56.206225 V 51.096568 H 106.149 27.855871 v 5.109657 5.109657 H 106.149 184.44213 Z M 173.23385,36.591736 V 31.646907 H 106.149 39.064151 v 4.944829 4.944829 H 106.149 173.23385 Z"
   id="path1084" /></svg>
